# xmcd CD database file
#
# Track frame offsets:
#	150
#	28432
#	57097
#	84356
#	101875
#	125745
#	162361
#	181273
#	213020
#
# Disc length: 3019 seconds
#
# Revision: 0
# Processed by: cddbd v1.5.2PL0 Copyright (c) Steve Scherf et al.
# Submitted via: CDex 1.51
#
DISCID=780bc909
DTITLE=Ulf Meyer Martin Wind Alex Riel - Feels Like Home
DYEAR=2005
DGENRE=Jazz
TTITLE0=Gandhi
TTITLE1=The Old Country
TTITLE2=The Nearness of You
TTITLE3=Bluesette
TTITLE4=The Cruise Blues
TTITLE5=Locomotive Blues
TTITLE6=Blues in Klues
TTITLE7=Big Al
TTITLE8=Samba Rapido
EXTD=YEAR: 2005
EXTT0=
EXTT1=
EXTT2=
EXTT3=
EXTT4=
EXTT5=
EXTT6=
EXTT7=
EXTT8=
PLAYORDER=
